<svg xmlns="http://www.w3.org/2000/svg" 
width="303" 
height="144" 
viewBox="0 0 30.333 14.368">
    <g transform="matrix(1,0,0,1,0,-0.8)">
        <path d="M 6.7 0 C 3.7 0 1.7 1.8 0 4.1 l 1 1.5 C 2.6 3.4 4.3 1.7 6.7 1.7 a 5.4 5.4 0 0 1 5.4 4.5 H 5.3 V 8 h 8.5 A 7.1 7.1 0 0 0 6.7 0" 
            transform="translate(16.5,0.8)" 
            fill="rgba(1,1,1,0)"
            stroke="#ff4483"
            stroke-dasharray="33.5 4"
            stroke-width="0.15"
        stroke-dashoffset="3"
                        
            />

        <path d="M 23 12.6 c -2.9 0 -4.9 -2.5 -7.3 -6.2 S 10.9 0 7.3 0 A 7.2 7.2 0 0 0 0 7.2 a 7.2 7.2 0 0 0 7.3 7.2 c 3 0 5 -1.8 6.8 -4.1 L 13 8.7 c -1.6 2.2 -3.3 3.9 -5.7 3.9 A 5.5 5.5 0 0 1 1.8 7.2 A 5.5 5.5 0 0 1 7.3 1.7 c 2.9 0 4.8 2.4 7.3 6.2 S 19.4 14.4 23 14.4 a 7.3 7.3 0 0 0 6.8 -4.6 H 27.9 A 5.6 5.6 0 0 1 23 12.6" 
        transform="translate(0,0.8)" 
        fill="rgba(1,1,1,0)"
        stroke="#ff4483"
        stroke-dasharray="53.6 4"
        stroke-width="0.15"
        stroke-dashoffset="3"
        
        />
    </g>
</svg>