<?xml version="1.0" encoding="UTF-8"?>
<svg width="161px" height="21px" viewBox="0 0 161 21" version="1.1" xmlns="http://www.w3.org/2000/svg" xmlns:xlink="http://www.w3.org/1999/xlink">
    <title>Group 8</title>
    <defs>
        <linearGradient x1="-85.1502677%" y1="86.021015%" x2="75.847957%" y2="48.9990413%" id="linearGradient-1">
            <stop stop-color="#d22748" offset="0%"></stop>
            <stop stop-color="#FF2D55" offset="100%"></stop>
        </linearGradient>
    </defs>
    <g id="Page-3" stroke="none" stroke-width="1" fill="none" fill-rule="evenodd">
        <g id="Group-3" transform="translate(-83.000000, -305.000000)" fill-rule="nonzero">
            <g id="Group-8" transform="translate(83.000000, 305.000000)">
                <g id="logo.ba1f4c97">
                    <g id="Group-5" transform="translate(0.000000, 0.499721)" fill="url(#linearGradient-1)">
                        <path d="M9.7735,0.000278588612 C14.5945,0.000278588612 17.703,3.62427859 20.9955,8.58577859 C24.288,13.5472786 26.882,16.9287786 30.813,16.9287786 C33.5209812,16.935343 36.0192718,15.4719765 37.338,13.1067786 L37.338,13.1067786 L39.925,13.1067786 C38.4325742,16.8275563 34.8219133,19.261939 30.813,19.2502786 C25.992,19.2502786 23.0095,15.7822786 19.584,10.6562786 C16.1585,5.53027859 13.7045,2.32127859 9.7735,2.32127859 C5.70882375,2.293258 2.38821913,5.56018544 2.35,9.62477859 C2.38767151,13.689567 5.70813165,16.9570197 9.773,16.9292786 C12.9865,16.9292786 15.2825,14.6147786 17.4425,11.6722786 L17.4425,11.6722786 L18.83,13.7187786 C16.4735,16.7812786 13.748,19.2502786 9.7735,19.2502786 C4.41912947,19.2849466 0.0470310366,14.9790548 -4.26325641e-14,9.62477859 C0.0475789503,4.27089411 4.41951637,-0.0343917831 9.7735,0.000278588612 Z M31.0225,0.000278588612 C33.7661734,-0.0206695556 36.3860511,1.1406373 38.2130746,3.18762726 C40.0400981,5.23461723 40.8973838,7.96911055 40.566,10.6927786 L40.566,10.6927786 L29.216,10.6927786 L29.216,8.39277859 L38.233,8.39277859 C37.6438509,4.87131048 34.5929044,2.2934183 31.0225,2.30027859 C27.8605,2.30027859 25.601,4.60027859 23.476,7.51677859 L23.476,7.51677859 L22.101,5.50027859 C24.421,2.45727859 27.106,0.000278588612 31.0225,0.000278588612 Z" id="Combined-Shape"></path>
                    </g>
                    <path d="M51.5565,15.4715 L51.4625,15.4715 C50.4777761,15.5273932 49.5085299,15.2075277 48.7505,14.5765 C48.0764802,13.9325416 47.7172606,13.0263658 47.767,12.0955 C47.7208649,11.1257614 48.1588082,10.1963027 48.936,9.6145 C49.7135,9.034 50.8775,8.74 52.396,8.74 L54.273,8.74 L54.273,8.019 C54.303176,7.49447863 54.1368605,6.97752808 53.8065,6.569 C53.4607755,6.2074143 52.9733367,6.01646264 52.474,6.047 C51.950307,6.02412138 51.434824,6.18311204 51.015,6.497 C50.657117,6.7601661 50.4468797,7.17878184 50.4495,7.623 L48.072,7.4295 C48.0614234,6.46538699 48.5272915,5.55816028 49.317,5.005 C50.2432899,4.34969118 51.3602561,4.01903123 52.494,4.0645 C53.948,4.0645 55.052,4.5195 55.7765,5.4145 C56.5985007,4.5266685 57.7624313,4.0349438 58.972,4.0645 L59.029,4.0645 C60.2548564,3.99953742 61.4463656,4.4817452 62.282,5.381 C63.0575,6.2545 63.451,7.501 63.451,9.0865 L63.451,10.479 L56.6215,10.479 C56.632159,11.2928179 56.9278064,12.0771415 57.457,12.6955 C57.9974004,13.2474324 58.7491583,13.5401571 59.5205,13.499 L59.609,13.499 C60.4154598,13.4975865 61.2087977,13.2947835 61.917,12.909 L62.517,12.5645 L63.235,14.252 C62.7268511,14.6587165 62.1443342,14.9625423 61.52,15.1465 C60.8345766,15.3625081 60.1201548,15.4724451 59.4015,15.4725 L59.383,15.4725 C57.9123204,15.5495463 56.4879327,14.9458641 55.5205,13.8355 C55.068866,14.3754761 54.4872976,14.7916932 53.8305,15.045 C53.1057822,15.3279158 52.3344821,15.472577 51.5565,15.4715 L51.5565,15.4715 Z M52.3465,10.4385 C51.7678544,10.4198495 51.1998564,10.5970845 50.7345,10.9415 C50.3613635,11.2250345 50.1430682,11.6673649 50.145,12.136 C50.1283416,12.5409969 50.29645,12.9316559 50.602,13.198 C50.9779212,13.4874686 51.4466045,13.6297093 51.92,13.598 L51.924,13.598 C52.3536396,13.5872846 52.776046,13.485007 53.163,13.298 C53.5740142,13.1223596 53.9498915,12.8738639 54.2725,12.5645 L54.2725,10.4385 L52.3465,10.4385 Z M58.967,6.046 C58.3791402,6.04814631 57.8206351,6.30317147 57.434,6.746 C56.9770566,7.31530824 56.7044489,8.01034451 56.6525,8.7385 L61.0945,8.7385 L61.0945,8.4335 C61.1347099,7.79852458 60.9443819,7.17037129 60.5585,6.6645 C60.1684631,6.23805682 59.6068977,6.01027103 59.03,6.0445 L58.967,6.046 Z" id="Shape" fill="#FFFFFF"></path>
                    <path d="M68.536,1.926 L68.536,4.536 L70.519,4.536 L70.519,6.3225 L68.536,6.3225 L68.536,12.316 C68.5070701,12.6335405 68.5978396,12.9504313 68.7905,13.2045 C69.0436631,13.4151565 69.371653,13.5137159 69.699,13.4775 C69.9959359,13.4764949 70.291868,13.4429615 70.5815,13.3775 L70.5815,15.243 C70.0400649,15.3907757 69.4817257,15.4675852 68.9205,15.4715 C66.9825,15.4715 66.0135,14.4493333 66.0135,12.405 L66.0135,6.322 L64.165,6.322 L64.165,4.536 L66.015,4.536 L66.015,1.926 L68.536,1.926 Z" id="Path" fill="#FFFFFF"></path>
                    <path d="M75.704,15.472 L75.6245,15.472 C74.2545548,15.520866 72.9289861,14.9821603 71.9815,13.9915 C71.0164268,12.9128451 70.5136595,11.4982732 70.5815,10.0525 L70.5815,9.7475 C70.5653291,8.73357315 70.7734597,7.72860458 71.191,6.8045 C71.5587513,5.98414485 72.1510526,5.28454628 72.8995,4.7865 C73.6124671,4.31640296 74.4475021,4.06540577 75.3015,4.0645 L75.3515,4.0645 C76.6225565,3.99626307 77.8523237,4.52668922 78.675,5.498 C79.4535,6.448 79.848,7.814 79.848,9.5545 L79.848,10.5505 L72.9675,10.5505 C72.994633,11.3491231 73.3029268,12.1125089 73.838,12.706 C74.3178063,13.2119994 74.9841848,13.4990102 75.6815,13.5 L75.76,13.5 C76.8159666,13.5118091 77.8085426,12.9972442 78.4075,12.1275 L79.6825,13.3985 C79.2664509,14.0502371 78.6831792,14.5784278 77.9935,14.928 C77.2827268,15.284099 76.4989857,15.470321 75.704,15.472 Z M75.2705,6.046 C74.6893807,6.04891563 74.139679,6.31020714 73.7705,6.759 C73.3319556,7.33367012 73.0667145,8.02166624 73.006,8.742 L77.5130006,8.742 L77.5130006,8.5585 C77.5134251,7.88091642 77.2915858,7.22189721 76.8815,6.6825 C76.4900714,6.25080015 75.925473,6.01769224 75.3435,6.0475 L75.2705,6.046 Z" id="Shape" fill="#FFFFFF"></path>
                    <path d="M87.682,6.5705 C87.3537914,6.51466897 87.0214228,6.48690189 86.6885,6.4875 C85.5705,6.4875 84.8173333,6.92916667 84.429,7.8125 L84.429,15.4715 L81.9885,15.4715 L81.9885,4.2725 L84.318,4.2725 L84.3785,5.525 C84.8565643,4.61715008 85.8025321,4.0532374 86.8285,4.0645 C87.1230663,4.05494986 87.4165912,4.10406898 87.692,4.209 L87.682,6.5705 Z" id="Path" fill="#FFFFFF"></path>
                    <path d="M91.307,4.2715 L91.374,5.5645 C92.0691418,4.59884944 93.1954676,4.03774393 94.385,4.0645 C96.5403333,4.0645 97.6365,5.39983333 97.6735,8.0705 L97.6735,15.4705 L95.3505,15.4705 L95.3505,8.2145 C95.3944014,7.6550588 95.2441284,7.09758298 94.925,6.636 C94.5632614,6.26313212 94.0516343,6.07492842 93.5345,6.1245 C92.6198309,6.10900192 91.7889718,6.65517071 91.4405,7.501 L91.4405,15.4715 L89.118,15.4715 L89.118,4.2715 L91.307,4.2715 Z" id="Path" fill="#FFFFFF"></path>
                    <path d="M101.774,15.4715 L99.255,15.4715 L99.255,4.6215 L101.774,4.6215 L101.774,15.4715 L101.774,15.4715 Z M100.5195,3.087 C100.134629,3.11103873 99.7562544,2.97932831 99.4695,2.7215 C99.2246532,2.47991611 99.0905651,2.14786277 99.099,1.804 C99.0896012,1.45578555 99.2226928,1.1188126 99.4675,0.871 C99.7530913,0.609364502 100.132964,0.47539809 100.5195,0.5 C100.907587,0.476143127 101.28888,0.609910912 101.577,0.871 C101.824294,1.11743488 101.958894,1.45502074 101.949,1.804 C101.957932,2.14844477 101.822737,2.48099464 101.576,2.7215 C101.286586,2.97921121 100.906295,3.11077406 100.5195,3.087 Z" id="Shape" fill="#FFFFFF"></path>
                    <path d="M107.7475,1.926 L107.7475,4.536 L109.7305,4.536 L109.7305,6.3225 L107.7475,6.3225 L107.7475,12.316 C107.718521,12.6335452 107.809296,12.9504533 108.002,13.2045 C108.255135,13.4152084 108.583148,13.5137747 108.9105,13.4775 C109.207435,13.4764828 109.503366,13.4429496 109.793,13.3775 L109.793,15.243 C109.251403,15.3908186 108.692893,15.4676285 108.1315,15.4715 C106.193167,15.4715 105.224167,14.4493333 105.2245,12.405 L105.2245,6.322 L103.3765,6.322 L103.3765,4.536 L105.2265,4.536 L105.2265,1.926 L107.7475,1.926 Z" id="Path" fill="#FFFFFF"></path>
                    <path d="M114.843,12.012 L117.109,4.7775 L119.774,4.7775 L115.3495,17.0585 C114.670167,18.8521667 113.518,19.7491667 111.893,19.7495 C111.485565,19.743189 111.080741,19.6831716 110.689,19.571 L110.689,17.709 L111.1625,17.7385 C111.659632,17.7719874 112.155531,17.6573216 112.5875,17.409 C112.949236,17.1277656 113.213506,16.7400193 113.343,16.3005 L113.703,15.3845 L109.793,4.7775 L112.489,4.7775 L114.843,12.012 Z" id="Path" fill="#FFFFFF"></path>
                </g>
                <path d="M128.256501,15.4190016 C129.959501,15.4190016 131.461001,14.4505015 131.461001,12.9425012 C131.461001,11.454001 129.946501,10.7455009 128.256501,10.4400008 C126.7225,10.1540008 125.5785,9.84850071 125.5785,8.50300049 C125.5785,7.3330003 126.833,6.54650017 128.256501,6.54650017 C129.413501,6.54650017 130.681001,7.07300026 131.025501,8.04150042 L131.526001,7.86600039 C131.071001,6.67650019 129.621501,6.02650009 128.256501,6.02650009 C126.5665,6.02650009 125.0585,6.99500025 125.0585,8.50300049 C125.0585,10.1540008 126.4365,10.6480008 128.256501,10.9860009 C129.602001,11.2330009 130.941001,11.727001 130.941001,12.9425012 C130.941001,14.1320014 129.667001,14.8990015 128.256501,14.8990015 C127.0995,14.8990015 125.832,14.3790015 125.4875,13.4040013 L125,13.5925013 C125.3965,14.7365015 126.8265,15.4190016 128.256501,15.4190016 Z M134.451,15.2500016 L134.464,9.27000062 L136.186501,9.27000062 L136.186501,8.75000053 L134.464,8.75000053 L134.451,6.7090002 L133.931,6.7090002 L133.944,8.75000053 L132.644,8.75000053 L132.644,9.27000062 L133.944,9.27000062 L133.931,15.2500016 L134.451,15.2500016 Z M140.0995,15.4190016 C141.035501,15.4190016 141.848001,14.8795015 142.368001,13.9760014 L142.368001,15.2500005 L142.888001,15.2500005 L142.888001,8.75000053 L142.368001,8.75000053 L142.368001,12.2860011 C142.368001,13.7290013 141.367001,14.9055015 140.1255,14.9055015 C138.8775,14.9055015 137.8635,13.7290013 137.8635,12.2860011 L137.8635,8.75000053 L137.3435,8.75000053 L137.3435,12.3120011 C137.3695,13.9695014 138.5135,15.4190016 140.0995,15.4190016 Z M147.477001,15.4190016 C148.692501,15.4190016 149.583001,14.7755015 150.044501,13.8070014 L150.044501,15.2500016 L150.564501,15.2500016 L150.564501,5.5 L150.044501,5.5 L150.044501,10.1800008 C149.583001,9.21150061 148.692501,8.5680005 147.477001,8.5680005 C145.592,8.5680005 144.058,10.1020008 144.058,12 C144.058,13.8850014 145.592,15.4190016 147.477001,15.4190016 Z M147.477001,14.9055015 C145.9235,14.9055015 144.5845,13.6315013 144.5845,12.0000011 C144.5845,10.3945008 145.891,9.08150059 147.477001,9.08150059 C149.063001,9.08150059 150.005501,10.3685008 150.005501,12.0000011 C150.005501,13.5990013 149.082501,14.9055015 147.477001,14.9055015 Z M152.638,7.50200033 C152.8265,7.50200033 152.9955,7.3265003 152.9955,7.15750027 C152.9955,6.97550024 152.8265,6.80650021 152.638,6.80650021 C152.4495,6.80650021 152.2935,6.97550024 152.2935,7.15750027 C152.2935,7.3265003 152.4495,7.50200033 152.638,7.50200033 Z M152.8525,15.2500005 L152.8525,8.75000053 L152.3325,8.75000053 L152.3325,15.2500005 L152.8525,15.2500005 Z M157.4155,15.4190016 C159.209501,15.4190016 160.6655,13.8850014 160.6655,12.0000011 C160.6655,10.1020008 159.209501,8.5680005 157.4155,8.5680005 C155.6215,8.5680005 154.1655,10.1020008 154.1655,12.0000011 C154.1655,13.8850014 155.6215,15.4190016 157.4155,15.4190016 Z M157.4155,14.8990015 C155.927,14.8990015 154.6855,13.6185013 154.6855,12.0000011 C154.6855,10.4335008 155.862,9.08800059 157.4155,9.08800059 C158.949501,9.08800059 160.145501,10.4335008 160.145501,12.0000011 C160.145501,13.5535013 158.956001,14.8990015 157.4155,14.8990015 Z" id="Studio" fill-opacity="0.4" fill="#FFFFFF"></path>
            </g>
        </g>
    </g>
</svg>